Patient4_TMGait_0pt7_02_left_18_EMG.mot
version=1
nRows=16
nColumns=33
inDegrees=no
endheader
time	1LAddLong	2LGlutMax	3LGlutMed	4LIliopsoas	5LSemiMemb	6LBicFemLong	7LRecFem	8LVastMed	9LVastLat	10LGasMed	11LTibAnt	12lTibPost	13LPeroneusLong	14LSol	15LExtDigLong	16LFlexDigLong	17RAddLong	18RGlutMax	19RGlutMed	20RIliopsoas	21RSemiMemb	22RBicFemLong	23RRecFem	24RVastMed	25RVastLat	26RGasMed	27RTibAnt	28RTibPost	29RPeroneusLong	30RSol	31RExtDigLong	32RFlexDigLong
21.155	0.006561	0.012665	-0.12817	0.02655	-0.032043	0.061035	-0.16205	-0.007324	-0.02533	-0.011902	-0.003967	0.012207	0.13412	0.18631	0.040283	0.12192	0.081787	-0.30853	-0.28686	0.015106	-0.34058	-0.013123	0.055237	0.30685	0.32638	0.000153	0.16937	-0.002594	-0.090637	-0.014648	0.002289	-0.020752
21.156	0.01236	0.016632	-0.14114	-0.005493	-0.030365	-0.054626	-0.16068	-0.002594	-0.028687	0.062103	0.002747	0.014801	0.21088	0.17639	0.036926	-0.10757	-0.013733	-0.16312	0.036163	0.11643	0.29343	-0.079956	0.1416	0.25055	-0.067596	-0.006256	-0.11795	-0.003662	-0.093994	0.031891	0.000305	-0.016174
21.157	0.011749	0.031738	-0.11673	-0.007477	0.018311	-0.17105	-0.15976	-0.004425	-0.0383	-0.093079	-0.007629	0.042114	0.14526	0.22354	0.034637	-0.046844	-0.065918	-0.086365	0.47699	0.27435	0.78934	-0.22858	0.076447	0.31403	-0.32242	-0.00885	-0.18295	-0.010529	-0.088196	0.037079	0.002136	-0.011597
21.158	0.015564	-0.006256	-0.12146	0.000916	0.037079	-0.13672	-0.13489	-0.003204	-0.048065	-0.029755	-0.012512	0.049438	-0.046844	0.35858	0.027924	-0.046539	-0.03006	-0.099945	0.47409	0.3244	0.87006	-0.29175	0.087585	0.15427	-0.16647	-0.007324	-0.10254	-0.000305	0.13306	0.052643	-0.000458	-0.016632
21.159	0.007935	0.014648	-0.12695	-0.003662	0.019989	-0.044098	-0.11688	-0.001831	-0.054016	0.049286	-0.005035	0.009308	0.00473	0.66208	0.025482	-0.029907	-0.056458	-0.24765	0.13855	0.16403	0.6131	0.18784	-0.21225	-0.10819	0.10529	-0.005035	-0.027161	-0.005951	0.17425	0.073242	0.00351	-0.023499
21.16	0	-0.015717	-0.11551	0.000305	-0.007782	-0.01297	-0.081635	0.003357	-0.070953	-0.024109	-0.003052	-0.004578	-0.027161	0.60547	-0.000305	-0.077515	-0.099945	-0.28885	1.0965	0.03006	0.42709	0.35767	-0.43488	-0.22186	0.11444	-0.002136	-0.045929	0.000153	0.60593	0.039825	0.002594	-0.028229
21.161	-0.001526	-0.050812	-0.10941	0.005493	-0.00061	0.003967	-0.10346	0.00351	-0.063477	0.04425	0.006561	-0.007629	-0.041504	0.41748	-0.046234	-0.099945	-0.04425	-0.27069	0.98404	0.023041	0.26367	0.23636	-0.54581	-0.25909	0.48019	0.005188	-0.089722	-0.003815	-0.26138	-0.069427	-0.004425	-0.022888
21.162	0.007019	-0.013428	-0.10834	0.002289	-0.010223	0.066223	-0.11704	-0.004883	-0.042572	0.067749	0.008392	-0.016632	-0.00061	0.24078	-0.042877	-0.079346	-0.016479	-0.20966	0.40253	-0.014801	0.36636	0.19608	-0.50827	-0.6015	0.19775	-0.006256	-0.049133	-0.004883	-0.076904	-0.026398	0.001068	-0.03006
21.163	0.010681	0.021057	-0.11047	-0.011902	-0.024719	0.16037	-0.12528	-0.009613	-0.046082	-0.041351	-0.000916	-0.012665	0.02121	-0.12619	-0.027313	0.09079	0.003204	-0.15671	0.4335	-0.063782	0.15045	0.2327	-0.29953	-0.72144	-0.31693	-0.006866	-0.016022	-0.004578	0.2388	0.015564	0.000305	-0.020599
21.164	0.007477	0.012512	-0.091248	0.008087	-0.016479	0.13321	-0.09201	-0.003052	-0.041504	-0.00946	0.009613	-0.030365	-0.029907	-0.79361	-0.041199	0.1535	-0.016174	-0.1503	0.44189	-0.065918	0.33798	0.21515	-0.13214	-0.37155	-0.84976	-0.008698	-0.013885	-0.003052	0.22293	0.027924	0.001373	-0.020752
21.165	-0.001526	0.006714	-0.094452	0.01236	0.008392	0.036469	-0.095062	-0.001221	-0.055237	0.038147	0.016327	0.001678	-0.053253	-0.61737	-0.013428	-0.05722	0.037689	0.02594	0.55527	-0.035553	0.7869	0.061188	-0.053864	-0.27527	-1.1192	-0.009155	-0.044556	-0.001526	0.17654	-0.034027	0.001678	-0.016785
21.166	0.011597	0.041962	-0.10941	0.017395	0.027161	-0.039825	-0.066833	-0.006409	-0.062866	0.098724	0.006256	-0.007629	-0.029297	-0.62622	0.009003	-0.033569	0.091248	0.08255	0.20325	-0.023956	0.68008	0.019073	0.038605	-0.27802	-1.0474	-0.010834	-0.018005	-0.005188	-0.069427	-0.090942	0.000305	-0.010834
21.167	0.00351	0.044556	-0.10559	-0.005188	0.027771	-0.057678	-0.06134	0.000153	-0.058136	0.18249	0.001221	-0.002289	0.001678	-0.39581	0.025482	-0.00885	0.077515	0.096893	-0.13031	-0.015717	0.49057	0.11475	0.2034	-0.36606	-0.94971	-0.014648	-0.017853	-0.00473	-0.2388	-0.060577	0.000458	-0.018158
21.168	0.007019	0.10742	-0.090485	-0.001221	0.006409	-0.06424	-0.069885	-0.013885	-0.04425	0.19043	-0.002136	0.006256	0.004425	-0.099182	0.033112	-0.007629	0.098114	0.042877	-0.28397	-0.016022	0.040588	0.36224	0.31662	-0.36438	-0.85754	-0.014954	0.053253	-0.001221	-0.16968	-0.038757	0.004272	-0.019684
21.169	0.008545	0.11093	-0.10101	-0.003815	-0.007629	-0.053558	-0.070953	0.000763	-0.058441	0.16113	0.003815	0.011749	-0.00351	0.097809	0.022736	-0.005341	0.005035	-0.15427	-0.34119	-0.007935	-0.34851	0.63538	0.15823	-0.20142	-0.45517	-0.016174	0.21118	-0.003357	-0.24033	-0.038452	0.002136	-0.010834
21.17	0.009308	0.099792	-0.099335	0.019379	-0.006714	0.022125	-0.042419	0.000916	-0.069275	0.095825	-0.009613	0.007324	0.017395	0.25024	0.018921	-0.011139	-0.076294	-0.3862	-0.10681	-0.054932	-0.38177	0.8017	-0.26047	-0.1001	0.05661	-0.013275	0.38925	-0.005646	-0.003662	-0.083008	0.000458	-0.014343
